<svg width="18" height="17" viewBox="0 0 18 17" fill="none" xmlns="http://www.w3.org/2000/svg">
<path fill-rule="evenodd" clip-rule="evenodd" d="M17.0303 0.469691C17.2341 0.673419 17.3031 0.975843 17.2079 1.24778L11.9579 16.2478C11.8563 16.538 11.5878 16.7369 11.2806 16.7494C10.9733 16.7619 10.6895 16.5856 10.5646 16.3046L7.6818 9.81822L1.1954 6.93538C0.91439 6.81049 0.738092 6.52671 0.750627 6.21945C0.763163 5.91219 0.961991 5.64371 1.25224 5.54213L16.2522 0.292127C16.5242 0.196948 16.8266 0.265962 17.0303 0.469691ZM9.14456 9.41612L11.1671 13.9667L14.7064 3.85429L9.14456 9.41612ZM13.6457 2.79362L3.53331 6.33297L8.0839 8.35546L13.6457 2.79362Z" fill="#949494"/>
</svg>
