<svg width="1261" height="617" viewBox="0 0 1261 617" fill="none" xmlns="http://www.w3.org/2000/svg">
<path fill-rule="evenodd" clip-rule="evenodd" d="M0 95.5366V521.676C0 573.808 42.4274 616.236 94.5594 616.236L1166.44 616.236C1218.57 616.236 1261 573.808 1261 521.676V95.5366C1261 43.4044 1218.57 0.977112 1166.44 0.977112L94.5594 0.977112C42.4274 0.977112 0 43.4044 0 95.5366ZM1166.44 1.59911C1218.26 1.59911 1260.38 43.7154 1260.38 95.5365V521.676C1260.38 573.497 1218.26 615.613 1166.44 615.613L94.5593 615.613C42.7383 615.613 0.621948 573.497 0.621948 521.676V95.5365C0.621948 43.7154 42.7383 1.59911 94.5593 1.59911L1166.44 1.59911Z" fill="#5A595F"/>
</svg>
