<svg width="1242" height="597" viewBox="0 0 1242 597" fill="none" xmlns="http://www.w3.org/2000/svg">
<path d="M0.642334 507.943V89.2691C0.647827 83.2724 1.2522 77.2913 2.44641 71.4148C4.77954 60.0935 9.30188 49.337 15.7594 39.7498C18.9669 35.0588 22.5897 30.6657 26.584 26.6235C34.6621 18.5356 44.2327 12.0918 54.7651 7.64936C60.1257 5.40582 65.6875 3.6769 71.3754 2.48592C77.2523 1.29479 83.2332 0.69046 89.2296 0.681824L1153.09 0.681824C1159.08 0.687329 1165.06 1.29169 1170.94 2.48592C1182.26 4.81896 1193.02 9.34132 1202.6 15.7989C1207.3 19.0064 1211.69 22.6292 1215.73 26.6235C1223.82 34.7015 1230.26 44.2721 1234.71 54.8047C1236.95 60.1653 1238.68 65.727 1239.87 71.4148C1241.06 77.2918 1241.66 83.2726 1241.67 89.2691V507.943C1241.67 513.94 1241.06 519.921 1239.87 525.798C1237.54 537.119 1233.01 547.876 1226.56 557.463C1223.35 562.154 1219.73 566.547 1215.73 570.589C1211.73 574.63 1207.33 578.257 1202.6 581.414C1197.86 584.613 1192.82 587.342 1187.55 589.563C1182.19 591.807 1176.63 593.536 1170.94 594.727C1165.06 595.918 1159.08 596.522 1153.09 596.531L89.2919 596.531C83.2952 596.525 77.3141 595.921 71.4375 594.727C60.1162 592.394 49.3597 587.871 39.7726 581.414C35.0815 578.206 30.6885 574.583 26.6462 570.589C18.5583 562.511 12.1145 552.94 7.67212 542.408C5.42859 537.047 3.69958 531.486 2.50867 525.798C1.26318 519.928 0.637695 513.944 0.642334 507.943Z" fill="black"/>
</svg>
