<svg width="1203" height="556" viewBox="0 0 1203 556" fill="none" xmlns="http://www.w3.org/2000/svg">
<path d="M0.883667 488.566V67.403C0.873657 62.8474 1.33228 58.3029 2.2522 53.8411C4.02454 45.2595 7.44727 37.104 12.3303 29.828C19.5948 19.0094 29.8671 10.5537 41.8801 5.50384C45.9412 3.75978 50.1738 2.44619 54.5088 1.5846C58.9705 0.66462 63.515 0.205999 68.0707 0.21598L1134.97 0.21598C1139.53 0.205999 1144.08 0.66462 1148.54 1.5846C1157.12 3.35681 1165.27 6.77959 1172.55 11.6627C1183.37 18.9271 1191.82 29.1994 1196.87 41.2125C1198.62 45.2735 1199.93 49.5062 1200.79 53.8411C1201.71 58.3029 1202.17 62.8474 1202.16 67.403V156.052C1202.15 159.484 1199.37 162.264 1195.94 162.273H1187.85C1169.67 162.275 1154.92 176.998 1154.88 195.183V360.102C1154.87 373.618 1162.96 385.826 1175.41 391.082C1179.54 392.847 1183.99 393.737 1188.48 393.695H1195.94C1199.37 393.705 1202.15 396.485 1202.16 399.916V488.566C1202.17 493.121 1201.71 497.666 1200.79 502.128C1199.02 510.709 1195.6 518.865 1190.72 526.141C1183.45 536.959 1173.18 545.415 1161.17 550.465C1157.1 552.209 1152.87 553.523 1148.54 554.384C1144.08 555.304 1139.53 555.763 1134.97 555.753L68.0707 555.753C63.515 555.763 58.9705 555.304 54.5088 554.384C45.9271 552.612 37.7717 549.189 30.4957 544.306C19.677 537.042 11.2213 526.769 6.17151 514.756C4.42749 510.695 3.11377 506.462 2.2522 502.128C1.33228 497.666 0.873657 493.121 0.883667 488.566Z" fill="#777777" fill-opacity="0.2"/>
</svg>
