<svg width="14" height="103" viewBox="0 0 14 103" fill="none" xmlns="http://www.w3.org/2000/svg">
<path fill-rule="evenodd" clip-rule="evenodd" d="M0.603782 95.9762L0.603782 6.39359C0.613691 2.96193 3.39314 0.182478 6.8248 0.172569L12.4237 0.172569C12.5916 0.162478 12.7558 0.224773 12.8747 0.343698C12.9936 0.462623 13.0559 0.626789 13.0458 0.794671L13.0458 101.575C13.0559 101.743 12.9936 101.907 12.8747 102.026C12.7558 102.145 12.5916 102.207 12.4237 102.197H6.8248C3.39314 102.187 0.613691 99.4079 0.603782 95.9762ZM12.4236 0.79463L6.8247 0.79463C5.3379 0.78848 3.91021 1.37639 2.85888 2.42772C1.80754 3.47906 1.21963 4.90674 1.22578 6.39355L1.22578 95.9762C1.21963 97.463 1.80754 98.8907 2.85888 99.942C3.91021 100.993 5.3379 101.581 6.8247 101.575H12.4236L12.4236 0.79463Z" fill="#3A393E"/>
</svg>
