<svg width="9" height="99" viewBox="0 0 9 99" fill="none" xmlns="http://www.w3.org/2000/svg">
<path fill-rule="evenodd" clip-rule="evenodd" d="M4.34412 0.0388184C2.24467 0.0388184 0.535288 1.72657 0.508553 3.82585L0.508553 94.2794C0.535288 96.3787 2.24467 98.0665 4.34412 98.0665C6.44357 98.0665 8.15295 96.3787 8.17969 94.2794L8.17969 3.82585C8.15295 1.72657 6.44357 0.0388184 4.34412 0.0388184ZM6.97019 93.9766V92.77H6.36551V92.1653H6.97019V92.7672H7.54004V93.9766H6.97019ZM6.36551 94.5813H6.97019V93.9766H6.36551L6.36551 92.77H5.15615V93.9793H4.55146V94.584H3.3421V95.7934H2.73741V96.3981H1.96165C2.1859 96.6427 2.44779 96.85 2.73741 97.0121V96.3981H3.3421L3.3421 97.2706C3.66629 97.3719 4.00404 97.4231 4.34368 97.4224C4.41336 97.4224 4.48241 97.4224 4.55146 97.4162V96.3953H5.15615V95.7906H6.36551V94.5813ZM4.55146 96.3953H3.3421L3.3421 95.7934H4.55146L4.55146 96.3953ZM5.15615 95.7906H4.55146L4.55146 94.584H5.15615L5.15615 95.7906ZM6.36551 94.5813H5.15615L5.15615 93.9793H6.36551L6.36551 94.5813ZM6.97019 92.1653V90.9559H7.54004V92.1653H6.97019ZM6.97012 95.7908V94.5814H7.52441C7.48592 95.0055 7.36079 95.4171 7.15675 95.7908H6.97012ZM6.36544 96.3955L6.36544 95.7908H6.97012V96.0925C6.89488 96.1984 6.81323 96.2996 6.72564 96.3955H6.36544ZM6.36544 96.3955V96.7308C6.00915 97.0124 5.59684 97.2148 5.15607 97.3243V96.3955H6.36544ZM2.22655 1.45536H2.73729V1.09765C2.55564 1.19972 2.38456 1.31955 2.22655 1.45536ZM6.97019 89.1414V90.3495H7.54004V89.1414H6.97019ZM6.97019 90.3513H6.36551V90.9542H6.97019V90.3513ZM6.36551 90.956H5.15615V92.1635H6.36551V90.956ZM5.15615 92.1654H4.55146V92.7682H5.15615V92.1654ZM4.55146 92.7701H3.3421V93.9776H4.55146V92.7701ZM3.3421 93.9794H2.73741L2.73741 94.5823H3.3421L3.3421 93.9794ZM2.73741 94.5841H1.52743V95.7916H2.73741V94.5841ZM1.14755 3.86862V3.81947L1.15004 3.82881C1.14897 3.64266 1.16417 3.45677 1.19546 3.27327H1.52766V3.86862H1.14755ZM2.73765 3.27016H2.73714V3.26987H2.73765V3.27016ZM3.34182 3.26987H2.73765V2.0639H1.68567C1.62848 2.14711 1.57574 2.23329 1.52766 2.32208V3.27016H2.73714V3.87455H1.52715V5.08391H1.14953L1.14705 5.68549H1.52715V5.08391H2.73714V3.87455H3.34182V3.26987ZM3.34182 2.06079V3.26987H4.55119V2.0605L5.15587 2.0605V1.45519H6.36523V1.37619C6.00905 1.09451 5.59669 0.892354 5.15587 0.783325V1.45519H4.55169V0.690925C4.48326 0.68657 4.41421 0.684704 4.34391 0.684704C4.00427 0.684045 3.66652 0.735232 3.34233 0.836497V1.45549H4.55119V2.0605H3.34233V1.4586L2.73765 1.4586V2.06079H3.34182ZM3.34182 2.06079H3.34233V2.0605H3.34182V2.06079ZM4.55119 1.45549H4.55169V1.45519H4.55119V1.45549ZM1.52827 9.31384H1.14817L1.15066 8.71352H1.52827V9.31384ZM2.73826 8.70916H1.52827V7.50415H1.15066L1.15066 6.89947H1.52827V5.68886H2.73826V6.89947H1.53076L1.53076 7.50415H2.73826V8.70916ZM2.73826 7.50291L2.73826 6.89947H3.34294L3.34294 7.50291H2.73826ZM3.34294 5.68886H2.73826V5.08418H3.34294V5.68886ZM3.34294 5.68886H4.55231V6.89941H4.55146V6.89947H3.34294V5.68886ZM4.55146 6.89947H4.55231V6.89941H5.15615V7.50285H4.55146V6.89947ZM5.15615 5.68886V6.89941H6.36551V7.50277H6.97019V6.89933H7.54004V5.68872H6.97019V5.08412H7.54004V3.87476H6.97104V3.27013H7.49609C7.37294 2.56396 7.00862 1.92239 6.46527 1.45483H6.36947V2.06014H5.15699V3.27013L4.55231 3.27013V3.87481H3.34294V5.08418H4.55231V5.68886H5.15615ZM5.15699 5.6888V5.68886H5.15615V5.6888H5.15699ZM5.15699 5.08418H4.55231V3.87481L5.15699 3.87481V5.08418ZM5.15699 5.08418V5.6888H6.36551V6.89933H6.97019V5.6888H6.36551V5.08418H6.36636V5.08412H6.97019V3.87481H6.97104V3.87476H6.97019V3.87481H6.36636V3.27013H6.97104V2.06076H6.36636V3.27013H5.15699V3.87481H6.36636V5.08412H6.36551V5.08418H5.15699ZM1.14732 11.1278H1.52743V10.5263H2.73741V11.1296H1.52743V12.3371H2.73741V11.1296H3.3421V10.5262H4.55146V9.31806H3.3421V10.5262H2.73741V9.31815H1.52743V10.5263H1.14981L1.14732 11.1278ZM2.73741 9.3169H3.3421V8.71346H2.73741V9.3169ZM3.3421 8.71222H4.55146V7.5041H3.3421V8.71222ZM1.52743 12.9424H1.14732L1.14981 12.339H1.52743V12.9424ZM5.15615 9.31682H4.55146V8.71338H5.15615V9.31682ZM6.36551 8.71214H5.15615V7.50401H6.36551V8.71214ZM1.14732 14.7565H1.52743V14.1537H1.14981L1.14732 14.7565ZM1.52743 14.1518H2.73741V12.9456H3.3421V14.1539H2.73741V14.7585H1.52743V15.966H2.73741V14.7598H3.3421V15.9678H2.73741V16.5725H1.52743V17.78H2.73741V16.5738H3.3421V15.9691H4.55146V14.7597H5.15615V14.155H6.36551V12.9457H6.97019V12.3404H7.54004V11.1298H6.97019V10.5264H7.54004V9.31702H6.97019V10.5264H6.36551V11.1298H5.15615V12.3392H4.55146V11.1297H5.15615L5.15615 10.5262H6.36551V9.31686H6.97019L6.97019 8.71217H7.54004L7.54004 7.50281H6.97019V8.71217H6.36551L6.36551 9.31686H5.15615V10.5262H4.55146L4.55146 11.1297H3.3421V12.339H2.73741V12.9443H1.52743V14.1518ZM6.36551 12.3391V11.1298H6.97019V12.3391H6.36551ZM3.3421 14.1551V14.7585H4.55146V14.1551H3.3421ZM4.55146 12.9457V14.1538H5.15615V12.9457H4.55146ZM5.15615 12.3404V12.9444H6.36551V12.3404H5.15615ZM4.55146 12.3403V12.9445H3.3421V12.3403H4.55146ZM1.52743 16.5707H1.14732L1.14981 15.9679H1.52743V16.5707ZM1.14732 18.3847H1.52743V17.7819H1.14981L1.14732 18.3847ZM1.52743 20.1988H1.14732L1.14981 19.5972H1.52743V20.1988ZM2.73741 19.5941H1.52743V18.3878H2.73741V19.5941ZM3.3421 18.3878H2.73741V17.7831H3.3421V18.3876H4.55146V19.597H3.3421V18.3878ZM2.73741 19.597H3.3421V20.2017H2.73741V19.597ZM1.52743 20.2017H2.73741V21.4079H1.52743V20.2017ZM5.15615 18.3876H4.55146L4.55146 17.7831H3.3421V16.5738H4.55146V17.7829H5.15615L5.15615 18.3876ZM6.36551 17.7829H5.15615V16.5738H4.55146V15.9691H5.15615V16.5736H6.36551V17.7829ZM6.97019 16.5736H6.36551V15.9691H5.15615V14.7597H6.36551V15.9689H6.97019V16.5736ZM6.97019 14.155V14.7595H7.54004V15.9689H6.97019V14.7597H6.36551V14.155H6.97019ZM6.97019 14.155V12.9457H7.54004V14.155H6.97019ZM1.14732 22.0126H1.52743L1.52743 21.411H1.14981L1.14732 22.0126ZM1.52743 23.8276H1.14732L1.14981 23.226H1.52743V23.8276ZM2.73741 23.2223H1.52743V22.0166H2.73741V23.2223ZM3.3421 22.0166H2.73741L2.73741 21.4113H3.3421V20.202H4.55146V21.411H5.15615V20.202H4.55146V19.5973H5.15615V20.2016H6.36551V21.4109H6.97019V20.2016H6.36551L6.36551 19.5973H5.15615V18.3879H6.36551V19.5969H6.97019L6.97019 20.2015H7.54004L7.54004 21.4115H6.97019V22.0162H6.36551V21.4116H5.15615V22.0162H6.36551V23.225H5.15615V22.0163H4.55146V21.4119H3.3421L3.3421 22.0163H4.55146V23.225H3.3421V22.0166ZM6.97019 17.7832V18.3876H7.54004V19.5969H6.97019V18.3879H6.36551V17.7832H6.97019ZM6.97019 17.7832V16.5739H7.54004V17.7832H6.97019ZM1.14732 25.6413H1.52743V25.0397H2.73741V25.6443H1.52743V26.8506H2.73741V25.6443H3.3421V25.0396H4.55146V23.8309H3.3421V25.0396H2.73741V23.831H1.52743V25.0397H1.14981L1.14732 25.6413ZM2.73741 23.8303H3.3421V23.2257H2.73741V23.8303ZM1.52743 27.4552H1.14732L1.14981 26.8537H1.52743V27.4552ZM5.15615 23.8303H4.55146V23.2256H5.15615V23.8303ZM1.14732 29.2696H1.52743V28.668H1.14981L1.14732 29.2696ZM1.52743 28.6649H2.73741V27.4586H3.3421V28.6678H2.73741V29.2725H1.52743V30.4787H2.73741V29.2725H3.3421V28.6678H4.55146V27.4584H5.15615V26.8537H6.36551V25.6444H6.97019V25.0397H7.54004V23.8303H6.97019V23.2258H6.36551V23.8305H6.97019V25.0397H6.36551V23.8312H5.15615V25.0399H4.55146V25.6446H3.3421V26.8539H2.73741V27.4586H1.52743V28.6649ZM3.3421 27.4584V26.8539H4.55146V27.4584H3.3421ZM4.55146 26.8537V25.6446H5.15615V26.8537H4.55146ZM5.15615 25.6444V25.0399H6.36551V25.6444H5.15615ZM6.97019 23.2252H7.54004V22.0165H6.97019V23.2252ZM1.52743 31.0834H1.14732L1.14981 30.4818H1.52743V31.0834ZM1.14732 32.8975H1.52743V32.2959H1.14981L1.14732 32.8975ZM1.52743 32.2928H2.73741V31.0866H3.3421V30.4819H4.55146V29.2725H5.15615V28.6678H6.36551V27.4585H6.97019V26.8538H7.54004V25.6444H6.97019V26.8538H6.36551V27.4585H5.15615V28.6678H4.55146V29.2725H3.3421V30.4819H2.73741V31.0866H1.52743V32.2928ZM1.52743 34.7123H1.14732L1.14981 34.1101H1.52743V34.7123ZM2.73741 34.1101H1.52743V32.9033H2.73741V34.11H3.3421V34.7154H2.73741V34.1101ZM1.52743 34.7154H2.73741V35.9216H1.52743V34.7154ZM4.55146 34.11H3.3421V32.9033H2.73741V32.2961H3.3421V31.0867H4.55146V32.296H5.15615V31.0867H4.55146V30.482H5.15615V31.0866H6.36551V32.296H6.97019V31.0867H7.54004V32.2985H6.97019V32.9032H6.36551V32.2985H5.15615V32.9032H4.55146V32.2986H3.3421V32.9032H4.55146V34.11ZM5.15615 32.9032H6.36551V34.1101H5.15615V32.9032ZM4.55146 34.1101H5.15615V34.7154H4.55146V34.1101ZM3.3421 34.7154H4.55146V35.9248H3.3421V34.7154ZM2.73741 35.9248H3.3421L3.3421 36.5294H2.73741L2.73741 35.9248ZM1.52743 36.5294H2.73741V37.7357H1.52743V36.5294ZM6.97019 31.0866H6.36551V30.482H5.15615V29.2727H6.36551V30.4819H6.97019V31.0866ZM6.97019 28.668V29.2726H7.54004V30.4819H6.97019V29.2727H6.36551V28.668H6.97019ZM6.97019 28.668V27.4586H7.54004V28.668H6.97019ZM1.14732 36.5263H1.52743L1.52743 35.9247H1.14981L1.14732 36.5263ZM1.52743 38.3404H1.14732L1.14981 37.7388H1.52743V38.3404ZM1.14732 40.1545H1.52743V39.553H1.14981L1.14732 40.1545ZM1.52743 39.5499H2.73741V38.3436H3.3421V39.5529H2.73741V40.1576H1.52743V41.3639H1.14981L1.14732 41.9685H1.52743V43.1778H1.14981L1.14732 43.7825H1.52743V43.1778H2.73741V41.9716H3.3421V43.1779H2.73741V43.7825H1.52743V44.9919H1.14981L1.14732 45.5972H1.52743V44.9919H2.73741V43.7857H3.3421V44.9921H2.73741V45.5974H1.52743V46.8067H1.14981L1.14732 47.4114H1.52743V46.8067H2.73741V45.6005H3.3421V46.8098H2.73741V47.4144H1.52743V48.6238H1.14981L1.14732 49.2254H1.52743V48.6238H2.73741V47.4144H3.3421V46.8098H4.55146V45.6004H5.15615V44.9951H6.36551V43.7857H6.97019V43.181H7.54004V41.9717H6.97019V41.364H7.54004V40.1577H6.97019V41.364H6.36551V41.9687H5.15615V41.3638H6.36551V40.1576H6.97019V39.5529H7.54004V38.3435H6.97019V39.5529H6.36551V40.1576H5.15615V41.3638H4.55146V41.9685H3.3421V41.3638H4.55146V40.1575H5.15615L5.15615 39.5528H6.36551V38.3435H6.97019L6.97019 37.7388H7.54004L7.54004 36.5294H6.97019V35.9248H7.54004V34.7155H6.97019V34.1102H7.54004V32.9033H6.97019V34.1102H6.36551V34.7155H5.15615V35.9249H4.55146V36.5296H3.3421V37.7389H2.73741V38.3436H1.52743V39.5499ZM6.97019 35.9248H6.36551V34.7155H6.97019V35.9248ZM3.3421 38.3436V37.7389H4.55146V38.3436H3.3421ZM4.55146 39.5528V38.3436H5.15615V39.5528H4.55146ZM4.55146 39.5529L4.55146 40.1575H3.3421V39.5529H4.55146ZM3.3421 40.1576V41.3638H2.73741V40.1576H3.3421ZM6.97019 41.9718V43.181H6.36551V41.9718H6.97019ZM6.36551 43.1811V43.7857H5.15615V43.1811H6.36551ZM5.15615 43.7858V44.9951H4.55146V43.7858H5.15615ZM4.55146 44.9952V45.6004H3.3421V44.9952H4.55146ZM1.52743 41.9685V41.3639H2.73741V41.9685H1.52743ZM4.55146 37.7389V36.5296H5.15615V37.7389H4.55146ZM5.15615 38.3435V37.7389H6.36551L6.36551 38.3435H5.15615ZM5.15615 36.5295V35.9249H6.36551V36.5295H5.15615ZM6.36551 37.7388V36.5295H6.97019V37.7388H6.36551ZM3.3421 43.181V43.7827H4.55146V43.181H3.3421ZM4.55146 41.9716V43.178H5.15615V41.9716H4.55146ZM1.14732 51.0396H1.52743L1.52743 50.438H1.14981L1.14732 51.0396ZM1.52743 50.4349H2.73741V49.2287H3.3421V50.4377H2.73741L2.73741 51.0424H1.52743V52.2505H1.14981L1.14732 52.8533H1.52743V52.2505H2.73741V51.0424H3.3421L3.3421 50.4377H4.55146V49.2283H5.15615V48.6236H6.36551V47.4143H6.97019V46.8096H7.54004V45.6002H6.97019V44.9953H7.54004V43.7859H6.97019V44.9953H6.36551V45.6006H5.15615V46.8099H4.55146L4.55146 47.4146H3.3421V48.624H2.73741V49.2287H1.52743V50.4349ZM3.3421 49.2283V48.624H4.55146V49.2283H3.3421ZM4.55146 48.6236V47.4146H5.15615V48.6236H4.55146ZM5.15615 47.4143L5.15615 46.8099H6.36551V47.4143H5.15615ZM6.36551 46.8096V45.6006H6.97019V46.8096H6.36551ZM1.14732 54.6675H1.52743V54.0647H1.14981L1.14732 54.6675ZM1.52743 54.0628H2.73741V52.8566H3.3421V54.0646H2.73741V54.6693H1.52743V55.8768H2.73741V54.6705H3.3421V55.8788H2.73741V56.4841H1.52743V57.6916H2.73741V56.4854H3.3421V57.6947H2.73741V58.2993H1.52743V59.5056H2.73741V58.2993H3.3421V59.5086H2.73741V60.1133H1.52743V61.3196H2.73741V60.1133H3.3421V59.5086H4.55146V58.2993H5.15615V57.6946H6.36551V56.4852H6.97019V55.8799H7.54004V54.6705H6.97019V54.0659H7.54004V52.8566H6.97019V52.2507H7.54004V51.0426H6.97019V52.2507H6.36551V52.8554H5.15615V52.2506H6.36551V51.0424H6.97019V50.4378H7.54004L7.54004 49.2284H6.97019L6.97019 48.6238H7.54004V47.4144H6.97019V48.6238H6.36551L6.36551 49.2285H5.15615V50.4378H4.55146V51.0425H3.3421V52.2506H2.73741V52.8553H1.52743V54.0628ZM3.3421 52.8552V52.2506H4.55146V52.8552H3.3421ZM4.55146 52.2506V51.0425H5.15615V52.2506H4.55146ZM6.97019 52.8567V54.0659H6.36551V52.8567H6.97019ZM6.97019 54.6706V55.8799H6.36551V54.6706H6.97019ZM6.36551 54.066V54.6706H5.15615V54.066H6.36551ZM6.36551 55.88V56.4852H5.15615V55.88H6.36551ZM5.15615 54.6707V55.88H4.55146V54.6707H5.15615ZM5.15615 56.4853V57.6946H4.55146V56.4853H5.15615ZM4.55146 55.8801V56.4853H3.3421V55.8801H4.55146ZM4.55146 57.6947V58.2993H3.3421V57.6947H4.55146ZM5.15615 51.0424V50.4378H6.36551V51.0424H5.15615ZM6.36551 50.4378V49.2285H6.97019V50.4378H6.36551ZM3.3421 54.0659V54.6695H4.55146V54.0659H3.3421ZM4.55146 52.8565V54.0648H5.15615V52.8565H4.55146ZM1.52743 56.4821H1.14732L1.14981 55.8787H1.52743V56.4821ZM1.14732 58.2963H1.52743V57.6935H1.14981L1.14732 58.2963ZM1.52743 60.1103H1.14732L1.14981 59.5087H1.52743V60.1103ZM1.14732 61.9242H1.52743V61.3227H1.14981L1.14732 61.9242ZM1.52743 63.7383H1.14732L1.14981 63.1374H1.52743V63.7383ZM2.73741 63.1374H1.52743V61.9274H2.73741V63.1374ZM3.3421 61.9274H2.73741V61.3227H3.3421V61.9274ZM4.55146 61.3227H3.3421V60.1133H4.55146V61.3227ZM5.15615 60.1133H4.55146V59.5086H5.15615V60.1133ZM6.36551 59.5086H5.15615V58.2993H6.36551V59.5086ZM6.97019 58.2993H6.36551V57.6946H6.97019V58.2993ZM6.97019 57.6946V56.4852H7.54004V57.6946H6.97019ZM1.14732 65.5524H1.52743L1.52743 64.9514H1.14981L1.14732 65.5524ZM1.52743 64.9477H2.73741V63.7421H1.52743V64.9477ZM2.73741 63.7383H3.3421V63.1374H4.55146V63.7383H5.15615V63.1373H6.36551V61.9273H6.97019V61.3226H7.54004V60.1133H6.97019V59.5087H7.54004V58.2993H6.97019V59.5087H6.36551V60.1134H5.15615V61.3227H4.55146V61.9274H3.3421V63.1374H2.73741V63.7383ZM4.55146 63.1373V61.9274H5.15615V63.1373H4.55146ZM5.15615 61.9273V61.3227H6.36551V61.9273H5.15615ZM6.36551 61.3226V60.1134H6.97019V61.3226H6.36551ZM1.52743 67.3664H1.14732L1.14981 66.7654H1.52743V67.3664ZM2.73741 66.7617H1.52743V65.556H2.73741V66.7617ZM3.3421 65.5523H2.73741L2.73741 64.9514H3.3421L3.3421 65.5523ZM4.55146 64.9476H3.3421V63.742H4.55146V64.9476ZM1.14732 69.1811H1.52743V68.5801H1.14981L1.14732 69.1811ZM1.52743 68.5764H2.73741V67.3701H1.52743V68.5764ZM2.73741 67.3676H3.3421V66.7654H2.73741V67.3676ZM3.3421 66.763H4.55146V65.5561H3.3421V66.763ZM4.55146 65.5536H5.15615V64.9514H4.55146V65.5536ZM5.15615 64.9489H6.36551V63.742H5.15615V64.9489ZM6.36551 63.7396H6.97019V63.1374H7.54004V61.9274H6.97019V63.1374H6.36551V63.7396ZM1.52743 70.9952H1.14732L1.14981 70.3918H1.52743V70.9952ZM2.73741 70.3905H1.52743V69.1824H2.73741V70.3905ZM3.3421 69.1811H2.73741V68.5777H3.3421V69.1811ZM4.55146 68.5765H3.3421V67.3677H4.55146V68.5765ZM5.15615 67.3677H4.55146V66.763H5.15615V67.3677ZM6.36551 66.763H5.15615V65.5537H6.36551V66.763ZM6.97019 65.5537H6.36551V64.949H6.97019V65.5537ZM6.97019 64.949V63.7396H7.54004V64.949H6.97019ZM1.14732 72.8094H1.52743V72.206H1.14981L1.14732 72.8094ZM1.52743 72.2047H2.73741V70.9966H1.52743V72.2047ZM2.73741 70.9954H3.3421V70.3919H2.73741V70.9954ZM3.3421 70.3907H4.55146V69.1825H3.3421V70.3907ZM4.55146 69.1813H5.15615L5.15615 68.5779H4.55146L4.55146 69.1813ZM5.15615 68.5766H6.36551V67.3679H6.97019V68.5775H6.36551V69.1822H5.15615V70.3916H4.55146V70.9963H3.3421V72.2056H2.73741V72.8103H1.52743V74.024H1.14981L1.14732 74.6231H1.52743V74.024H2.73741V72.8147H3.3421V72.21H4.55146V71.0006H5.15615V70.3959H6.36551V69.1866H6.97019V68.5819H7.54004V67.3676H6.97019L6.97019 66.7632H7.54004L7.54004 65.5538H6.97019V66.7632H6.36551L6.36551 67.3679H5.15615V68.5766ZM1.14732 76.4374H1.52743V75.8383H1.14981L1.14732 76.4374ZM1.52743 75.8327H2.73741V74.6289H1.52743V75.8327ZM2.73741 74.6233H3.3421V74.0242H4.55146V74.6232H5.15615V74.0241H6.36551V74.6261H6.97019V74.0239H7.54004V72.8146H6.97019V72.2101H7.54004V71.0007H6.97019V70.3961H7.54004V69.1868H6.97019V70.3961H6.36551V71.0008H5.15615V72.2102H4.55146V72.8149H3.3421V74.0242H2.73741V74.6233ZM6.97019 72.2101H6.36551V71.0008H6.97019V72.2101ZM4.55146 74.0241V72.8149H5.15615V74.0241H4.55146ZM5.15615 72.8148V72.2102H6.36551V72.8148H5.15615ZM6.36551 74.0239V72.8148H6.97019V74.0239H6.36551ZM1.52743 78.2513H1.14732L1.14981 77.6522H1.52743V78.2513ZM2.73741 77.6466H1.52743V76.4429H2.73741V77.6466ZM3.3421 76.4373H2.73741V75.8382H3.3421V76.4373ZM4.55146 75.8326H3.3421V74.6288H4.55146V75.8326ZM1.14732 80.0658H1.52743L1.52743 79.4667H1.14981L1.14732 80.0658ZM1.52743 79.4611H2.73741V78.2567H1.52743V79.4611ZM2.73741 78.2542H3.3421V77.652H2.73741V78.2542ZM3.3421 77.6496H4.55146V76.4427H3.3421V77.6496ZM4.55146 76.4402H5.15615L5.15615 75.838H4.55146L4.55146 76.4402ZM5.15615 75.8355H6.36551V74.6286H5.15615V75.8355ZM1.52743 81.8803H1.14732L1.14981 81.2787H1.52743V81.8803ZM2.73741 81.2756H1.52743V80.0694H2.73741V81.2756ZM3.3421 80.0662H2.73741L2.73741 79.4647H3.3421L3.3421 80.0662ZM4.55146 79.4616H3.3421V78.2547H4.55146V79.4616ZM5.15615 78.2547H4.55146V77.65H5.15615V78.2546H6.36551V79.4615H5.15615V78.2547ZM6.97019 78.2546H6.36551L6.36551 77.65H5.15615V76.4406H6.36551V77.6499H6.97019L6.97019 78.2543H7.54004L7.54004 79.4612H6.97019V78.2546ZM6.97019 75.836V76.4406H7.54004V77.6499H6.97019V76.4406H6.36551V75.836H6.97019ZM6.97019 75.836V74.6266H7.54004V75.836H6.97019ZM1.14732 83.6943H1.52743V83.0927H1.14981L1.14732 83.6943ZM1.52743 83.0896H2.73741V81.8833H1.52743V83.0896ZM2.73741 81.8802H3.3421V81.2786H2.73741V81.8802ZM3.3421 81.2755H4.55146V80.0693H3.3421V81.2755ZM4.55146 80.0662H5.15615V79.4646H4.55146V80.0662ZM1.52743 85.508H1.14732L1.14981 84.9064H1.52743V85.508ZM2.73741 84.9033H1.52743V83.697H2.73741V84.9033ZM3.3421 83.6939H2.73741V83.0924H3.3421V83.6939ZM4.55146 83.0892H3.3421V81.883H4.55146V83.0892ZM5.15615 81.8799H4.55146V81.2783H5.15615V81.8799ZM6.36551 81.2752H5.15615V80.0689H6.36551V81.2752ZM6.97019 80.0658H6.36551V79.4643H6.97019V80.0658ZM1.14732 87.3221H1.52743V86.7174H2.73741V85.5081H3.3421V84.9034H4.55146V83.694H5.15615V83.0893H6.36551V81.88H6.97019V81.2753H7.54004V80.0659H6.97019V81.2753H6.36551V81.88H5.15615V83.0893H4.55146V83.694H3.3421V84.9034H2.73741V85.5081H1.52743V86.7174H1.14981L1.14732 87.3221ZM1.52743 89.1362H1.14732L1.14981 88.534H1.52743V89.1362ZM2.73741 88.5315H1.52743V87.3246H2.73741V88.5315ZM3.3421 87.3246H2.73741V86.7199H3.3421V87.3246ZM4.55146 86.7199H3.3421V85.5105H4.55146V86.7199ZM5.15615 85.5105H4.55146V84.9059H5.15615V85.5105ZM6.36551 84.9059H5.15615V83.6965H6.36551V84.9059ZM6.97019 83.6965H6.36551V83.0918H6.97019V83.6965ZM6.97019 83.0918V81.8824H7.54004V83.0918H6.97019ZM1.14732 90.9509H1.52743V90.3487H1.14981L1.14732 90.9509ZM1.52743 90.3462H2.73741V89.1412H3.3421V90.3463H4.55146V89.1413H5.15615V90.3463H6.36551V89.1412H6.97019V88.5366H7.54004V87.3247H6.97019V86.7201H7.54004V85.5107H6.97019V86.7201H6.36551V87.3248H5.15615V88.5342H4.55146V87.3246H5.15615V86.7199H6.36551V85.5106H6.97019V84.9059H7.54004V83.6965H6.97019V84.9059H6.36551V85.5106H5.15615V86.7199H4.55146V87.3246H3.3421V88.534H2.73741V89.1387H1.52743V90.3462ZM6.36551 88.5341V87.3248H6.97019V88.5341H6.36551ZM5.15615 88.5366V89.1388H6.36551V88.5366H5.15615ZM4.55146 88.5365V89.1388H3.3421V88.5365H4.55146ZM1.52743 92.7651H1.14732L1.14981 92.1629H1.52743V92.7651ZM2.73741 92.1604H1.52743V90.9535H2.73741V92.1604ZM3.3421 90.951H2.73741V90.3488H3.3421V90.951ZM1.14732 94.2792C1.14732 94.3806 1.15168 94.4801 1.16101 94.579H1.52743L1.52743 93.9768H1.14981L1.14732 94.2792ZM1.52743 93.9743H2.73741V92.7675H1.52743V93.9743ZM2.73741 92.765H3.3421V92.1628H2.73741V92.765ZM3.3421 92.1603H4.55146V90.9534H3.3421V92.1603ZM4.55146 90.9509H5.15615V90.3487H4.55146V90.9509Z" fill="#6C6C6C"/>
</svg>
